PathFileType	4	(x/y/z)	S10_P20_T22
DataRate	CameraRate	NumFrames	NumMarkers	Units	OrigDataRate	OrigDataStartFrame	OrigNumFrames
240	240	8	51	mm	240	102	405
Frame#	Time	Sternum			R.Acromium			L.Acromium			Top.Head			R.ASIS			L.ASIS			R.PSIS			L.PSIS			R.Great.Tro			L.Great.Tro			R.Iliac.Crest			L.Iliac.Crest			V.Sacral			R.Thigh.Upper.Post			R.Thigh.Lower.Ant			R.Thigh.Lower.Post			R.Thigh.Upper.Ant			R.Knee.Lat			R.Knee.Med			R.Shank.Upper.Post			R.Shank.Lower.Ant			R.Shank.Lower.Post			R.Shank.Upper.Ant			R.Ankle.Lat			R.Ankle.Med			R.Heel.Upper			R.Heel.Med			R.Heel.Lat			R.Toe.Lat			R.Toe.Med			R.Toe.Tip			L.Thigh.Upper.Post			L.Thigh.Lower.Ant			L.Thigh.Lower.Post			L.Thigh.Upper.Ant			L.Knee.Lat			L.Knee.Med			L.Shank.Upper.Post			L.Shank.Lower.Ant			L.Shank.Lower.Post			L.Shank.Upper.Ant			L.Ankle.Lat			L.Ankle.Med			L.Heel.Upper			L.Heel.Med			L.Heel.Lat			L.Toe.Lat			L.Toe.Med			L.Toe.Tip			Cervical.Spine			Back			
		X1	Y1	Z1	X2	Y2	Z2	X3	Y3	Z3	X4	Y4	Z4	X5	Y5	Z5	X6	Y6	Z6	X7	Y7	Z7	X8	Y8	Z8	X9	Y9	Z9	X10	Y10	Z10	X11	Y11	Z11	X12	Y12	Z12	X13	Y13	Z13	X14	Y14	Z14	X15	Y15	Z15	X16	Y16	Z16	X17	Y17	Z17	X18	Y18	Z18	X19	Y19	Z19	X20	Y20	Z20	X21	Y21	Z21	X22	Y22	Z22	X23	Y23	Z23	X24	Y24	Z24	X25	Y25	Z25	X26	Y26	Z26	X27	Y27	Z27	X28	Y28	Z28	X29	Y29	Z29	X30	Y30	Z30	X31	Y31	Z31	X32	Y32	Z32	X33	Y33	Z33	X34	Y34	Z34	X35	Y35	Z35	X36	Y36	Z36	X37	Y37	Z37	X38	Y38	Z38	X39	Y39	Z39	X40	Y40	Z40	X41	Y41	Z41	X42	Y42	Z42	X43	Y43	Z43	X44	Y44	Z44	X45	Y45	Z45	X46	Y46	Z46	X47	Y47	Z47	X48	Y48	Z48	X49	Y49	Z49	X50	Y50	Z50	X51	Y51	Z51	

102	0.42083	-805.86	1286.8	318.97	-948.67	1437.2	462.69	-903.33	1484.6	172.79	-954.54	1761.2	352.98	-862.61	1021.4	416.36	-863.51	1026.8	185.54	-1063.2	1043.3	330.32	-1056.4	1049.6	250	-926.66	946.66	491.49	-929.77	965.08	129.68	-961.3	1103	459.88	-930.34	1104.7	156.53	-1083.9	1013.7	293.62	-846.64	744.91	488.61	-770.86	690.03	446.59	-822.63	658.86	480.07	-794.62	778.53	449.31	-789.56	539.38	439.07	-786.95	543.94	311.75	-821.52	307.73	438.53	-744.83	258.6	433.99	-806	234.84	433.59	-755.09	334.78	437.86	-763.6	127.52	419.43	-746.59	143.5	343	-803.32	65.817	363.23	-784.22	43.903	336.79	-798.17	42.009	396.95	-637.17	70.005	466.22	-597.66	89.136	363.79	-553.39	118.97	412.24	-1004.6	694.28	145.75	-947.15	605.43	177.38	-1019.7	602.06	170.9	-925.12	690.78	151.55	-1002.5	511.19	185.28	-995.68	513.65	315.66	-1113	321.46	186.83	-1075.2	218.96	210.53	-1129.9	246.33	199.2	-1056.7	293.5	197.16	-1140.9	121.5	216.81	-1125.7	130.97	304.18	-1216.6	98.722	261.29	-1209.7	62.911	291.46	-1210.9	69.974	227.1	-1036.4	42.37	193.53	-1012.8	43.05	304.04	-954.36	47.803	257.1	-1005.4	1506.6	317	-1087.7	1301.4	281.81
103	0.425	-800.37	1286	319.08	-943.07	1436.5	462.97	-897.91	1484.1	173.18	-949.31	1760.5	353.39	-856.98	1020.7	416.49	-858.14	1026.2	185.64	-1057.7	1042.9	330.97	-1051.2	1049.2	250.64	-921.18	945.78	491.72	-925.03	964.61	129.92	-955.33	1102.4	460.25	-925.11	1104	156.83	-1078.5	1013.3	294.32	-842.59	743.38	488.79	-767.23	688.01	446.68	-819.26	657.16	480.06	-790.29	776.67	449.59	-785.68	538.23	438.68	-783.99	542.44	311.11	-812.95	306.09	438.74	-735.24	258.53	433.7	-795.91	233.5	433.74	-747.09	334.55	437.59	-751.14	126.87	419.58	-734.94	143.11	342.98	-789.99	64.158	363.74	-770.45	42.59	337.16	-783.99	40.481	397.44	-623.01	72.001	465.54	-584.61	91.905	362.81	-540.62	122.74	410.92	-1000.7	694.13	145.92	-943.55	605.08	177.36	-1016.2	601.96	171.02	-921.22	690.32	151.55	-999.42	511	185.33	-992.27	513.37	315.7	-1111.1	322.06	186.83	-1074	219.26	210.48	-1128.5	247.02	199.19	-1055	293.67	197.12	-1140.3	122.14	216.82	-1125	131.56	304.2	-1216.3	99.763	261.29	-1209.4	63.938	291.45	-1210.6	70.917	227.08	-1036.2	42.349	193.51	-1012.6	43.107	303.98	-954.28	47.577	257.09	-999.9	1506	317.26	-1082.2	1300.8	282.17
104	0.42917	-794.88	1285.3	319.18	-937.45	1435.8	463.27	-892.5	1483.5	173.58	-944.09	1759.9	353.78	-851.35	1019.9	416.62	-852.72	1025.6	185.74	-1052.3	1042.4	331.62	-1045.9	1048.7	251.27	-915.69	944.84	491.96	-920.24	964.12	130.15	-949.38	1101.7	460.63	-919.88	1103.3	157.13	-1073.2	1012.8	295.01	-838.48	741.85	488.99	-763.54	685.99	446.78	-815.82	655.47	480.07	-785.9	774.82	449.88	-781.77	537.08	438.32	-781.12	540.91	310.48	-804.58	304.54	438.93	-725.95	258.48	433.38	-786.12	232.25	433.88	-739.3	334.32	437.3	-739.11	126.32	419.66	-723.74	142.8	342.91	-777.18	62.689	364.2	-757.22	41.431	337.49	-770.35	39.149	397.88	-609.39	73.986	464.77	-572.14	94.584	361.73	-528.4	126.37	409.49	-996.85	693.96	146.11	-939.87	604.72	177.31	-1012.6	601.84	171.14	-917.26	689.85	151.55	-996.27	510.8	185.38	-988.78	513.07	315.73	-1109.1	322.67	186.82	-1072.7	219.56	210.43	-1127.1	247.72	199.17	-1053.2	293.83	197.07	-1139.7	122.8	216.8	-1124.2	132.17	304.19	-1215.9	100.82	261.26	-1209	64.997	291.41	-1210.3	71.878	227.04	-1036.1	42.323	193.48	-1012.4	43.167	303.92	-954.19	47.366	257.07	-994.44	1505.3	317.53	-1076.7	1300.2	282.56
105	0.43333	-789.38	1284.5	319.29	-931.81	1435.1	463.58	-887.12	1482.9	173.97	-938.86	1759.2	354.17	-845.72	1019.1	416.76	-847.27	1025	185.86	-1046.8	1041.8	332.26	-1040.7	1048.2	251.89	-910.2	943.86	492.2	-915.41	963.61	130.4	-943.46	1100.9	461.02	-914.63	1102.6	157.45	-1067.9	1012.3	295.69	-834.29	740.33	489.19	-759.77	684	446.87	-812.3	653.8	480.07	-781.45	772.98	450.17	-777.82	535.92	437.98	-778.32	539.34	309.87	-796.43	303.07	439.11	-716.97	258.43	433.01	-776.64	231.09	433.98	-731.72	334.08	436.98	-727.54	125.87	419.68	-713.02	142.54	342.78	-764.92	61.393	364.61	-744.59	40.405	337.77	-757.27	37.993	398.27	-596.36	75.926	463.89	-560.25	97.134	360.56	-516.73	129.82	407.96	-992.92	693.77	146.32	-936.11	604.35	177.25	-1008.9	601.7	171.26	-913.24	689.37	151.55	-993.05	510.59	185.42	-985.21	512.73	315.76	-1107	323.29	186.79	-1071.4	219.87	210.35	-1125.6	248.42	199.13	-1051.4	293.99	197.02	-1139.1	123.47	216.77	-1123.5	132.8	304.15	-1215.5	101.9	261.2	-1208.7	66.091	291.36	-1210	72.859	226.97	-1036	42.292	193.45	-1012.3	43.23	303.85	-954.1	47.169	257.05	-988.96	1504.7	317.81	-1071.2	1299.5	282.98
106	0.4375	-783.87	1283.6	319.4	-926.14	1434.4	463.89	-881.76	1482.3	174.37	-933.62	1758.4	354.55	-840.09	1018.2	416.91	-841.79	1024.4	185.98	-1041.4	1041.3	332.9	-1035.4	1047.7	252.51	-904.71	942.85	492.44	-910.53	963.08	130.64	-937.56	1100.1	461.4	-909.39	1101.9	157.76	-1062.5	1011.8	296.35	-830.02	738.83	489.4	-755.91	682.05	446.96	-808.67	652.16	480.08	-776.92	771.17	450.45	-773.81	534.77	437.68	-775.57	537.77	309.28	-788.51	301.68	439.27	-708.3	258.37	432.6	-767.48	230.01	434.06	-724.35	333.82	436.64	-716.46	125.48	419.64	-702.78	142.31	342.58	-753.24	60.251	364.96	-732.58	39.493	338	-744.81	36.995	398.6	-583.93	77.785	462.92	-548.96	99.519	359.29	-505.63	133.05	406.34	-988.94	693.58	146.54	-932.28	603.96	177.18	-1005.2	601.55	171.4	-909.16	688.89	151.54	-989.77	510.35	185.46	-981.56	512.35	315.77	-1104.9	323.91	186.74	-1070	220.18	210.26	-1124	249.13	199.08	-1049.6	294.15	196.97	-1138.5	124.16	216.72	-1122.7	133.45	304.09	-1215.1	103	261.11	-1208.4	67.221	291.28	-1209.6	73.86	226.89	-1035.9	42.257	193.41	-1012.1	43.292	303.78	-954	46.984	257.01	-983.48	1504	318.09	-1065.7	1298.8	283.44
107	0.44167	-778.36	1282.8	319.51	-920.47	1433.7	464.23	-876.41	1481.7	174.77	-928.39	1757.7	354.92	-834.46	1017.3	417.07	-836.28	1023.7	186.12	-1035.9	1040.6	333.52	-1030.1	1047.1	253.12	-899.2	941.81	492.7	-905.59	962.53	130.89	-931.69	1099.3	461.79	-904.15	1101.2	158.09	-1057.2	1011.2	297	-825.65	737.37	489.6	-751.94	680.16	447.03	-804.91	650.56	480.08	-772.31	769.41	450.73	-769.74	533.63	437.4	-772.84	536.18	308.73	-780.82	300.36	439.4	-699.96	258.28	432.14	-758.66	228.99	434.11	-717.19	333.54	436.26	-705.89	125.14	419.52	-693.04	142.1	342.33	-742.17	59.247	365.25	-721.21	38.675	338.17	-732.98	36.138	398.88	-572.13	79.528	461.84	-538.29	101.7	357.94	-495.1	136.02	404.64	-984.9	693.37	146.78	-928.4	603.55	177.11	-1001.5	601.38	171.54	-905.03	688.41	151.54	-986.43	510.11	185.5	-977.85	511.95	315.79	-1102.7	324.53	186.68	-1068.6	220.5	210.16	-1122.5	249.85	199.02	-1047.7	294.3	196.92	-1137.9	124.87	216.66	-1121.9	134.12	304	-1214.6	104.12	260.98	-1208	68.388	291.19	-1209.3	74.885	226.78	-1035.8	42.218	193.36	-1011.9	43.355	303.7	-953.89	46.811	256.97	-978	1503.3	318.39	-1060.3	1298	283.93
108	0.44583	-772.84	1282	319.63	-914.77	1432.9	464.57	-871.09	1481	175.17	-923.15	1756.9	355.28	-828.83	1016.4	417.24	-830.76	1023	186.27	-1030.4	1040	334.14	-1024.7	1046.5	253.72	-893.68	940.76	492.96	-900.6	961.96	131.15	-925.85	1098.4	462.18	-898.91	1100.4	158.41	-1051.8	1010.6	297.63	-821.18	735.95	489.79	-747.85	678.34	447.08	-801.03	649.01	480.07	-767.61	767.71	450.99	-765.57	532.51	437.15	-770.1	534.61	308.22	-773.36	299.1	439.51	-691.93	258.16	431.63	-750.17	228.02	434.13	-710.24	333.22	435.85	-695.84	124.83	419.34	-683.83	141.88	342.01	-731.72	58.367	365.47	-710.51	37.934	338.29	-721.82	35.402	399.09	-560.98	81.12	460.68	-528.24	103.64	356.5	-485.16	138.69	402.86	-980.8	693.16	147.04	-924.46	603.13	177.04	-997.66	601.2	171.7	-900.84	687.92	151.55	-983.02	509.84	185.55	-974.07	511.51	315.8	-1100.5	325.16	186.62	-1067.2	220.83	210.04	-1120.9	250.57	198.95	-1045.8	294.45	196.86	-1137.2	125.6	216.57	-1121.1	134.81	303.89	-1214.1	105.28	260.82	-1207.7	69.595	291.08	-1208.9	75.934	226.66	-1035.7	42.176	193.31	-1011.8	43.415	303.62	-953.78	46.648	256.92	-972.52	1502.5	318.7	-1054.8	1297.3	284.45
109	0.45	-767.32	1281.1	319.76	-909.07	1432.1	464.93	-865.78	1480.3	175.57	-917.91	1756.1	355.63	-823.2	1015.4	417.43	-825.21	1022.4	186.44	-1024.9	1039.2	334.73	-1019.3	1045.8	254.3	-888.15	939.7	493.23	-895.54	961.36	131.41	-920.03	1097.5	462.57	-893.68	1099.7	158.73	-1046.3	1009.9	298.24	-816.59	734.58	489.97	-743.63	676.6	447.11	-796.99	647.53	480.05	-762.83	766.08	451.24	-761.32	531.41	436.92	-767.34	533.06	307.74	-766.14	297.89	439.59	-684.24	257.98	431.08	-742.03	227.09	434.11	-703.5	332.85	435.41	-686.32	124.53	419.09	-675.15	141.64	341.63	-721.9	57.596	365.62	-700.51	37.256	338.35	-711.35	34.773	399.24	-550.49	82.527	459.43	-518.82	105.32	354.99	-475.8	141.02	401.01	-976.65	692.94	147.3	-920.48	602.69	176.99	-993.79	601.01	171.87	-896.6	687.42	151.56	-979.54	509.57	185.59	-970.24	511.05	315.82	-1098.2	325.81	186.54	-1065.7	221.17	209.91	-1119.2	251.3	198.87	-1043.8	294.61	196.79	-1136.5	126.35	216.48	-1120.3	135.52	303.75	-1213.6	106.48	260.63	-1207.3	70.844	290.95	-1208.5	77.012	226.52	-1035.6	42.13	193.26	-1011.6	43.471	303.54	-953.68	46.493	256.86	-967.03	1501.7	319.01	-1049.4	1296.5	285
